<svg xmlns="http://www.w3.org/2000/svg" width="109" height="40">
    <defs>
        <style>
            .cls-2{fill:#00a0e9}.cls-3{fill:#231815}
        </style>
    </defs>
    <g id="logo">
        <g id="logo-2" data-name="logo" transform="translate(0 13.095)">
            <path id="패스_1074" data-name="패스 1074" class="cls-2" d="M29.362 5.309a7.5 7.5 0 1 0 7.5 7.5 7.5 7.5 0 0 0-7.5-7.5zm0 11.25a3.75 3.75 0 1 1 3.75-3.75 3.75 3.75 0 0 1-3.75 3.75z" transform="translate(-6 -5.309)"/>
            <path id="패스_1075" data-name="패스 1075" class="cls-2" d="M74.979 5.309a7.5 7.5 0 1 0 7.5 7.5 7.5 7.5 0 0 0-7.5-7.5zm0 11.25a3.75 3.75 0 1 1 3.751-3.75 3.75 3.75 0 0 1-3.751 3.75z" transform="translate(-6 -5.309)"/>
            <path id="패스_1076" data-name="패스 1076" class="cls-3" d="M12.288 5.813H6.173a.167.167 0 0 0-.125.053.187.187 0 0 0 0 .25l.683.878a.633.633 0 0 1 .163.487v12.144a.176.176 0 0 0 .177.178h5.137c5.036 0 7.974-3 7.974-7.035v-.04c0-4.037-2.898-6.915-7.894-6.915zm3.919 7.014c0 2.361-1.541 3.7-3.86 3.7H10.77V9.09h1.577a3.509 3.509 0 0 1 3.86 3.7z" transform="translate(-6 -5.309)"/>
            <path id="패스_1077" data-name="패스 1077" class="cls-3" d="M66.219 16.7a.177.177 0 0 0-.178-.178h-6.836l6.853-7.713a.633.633 0 0 0 .161-.487V5.991a.178.178 0 0 0-.178-.178H54.265a.178.178 0 0 0-.177.178v2.922a.176.176 0 0 0 .177.177h6.6l-6.856 7.71a.633.633 0 0 0-.161.488v2.334a.178.178 0 0 0 .178.177h12.015a.177.177 0 0 0 .178-.177z" transform="translate(-6 -5.309)"/>
            <path id="패스_1078" data-name="패스 1078" class="cls-3" d="M51.849 5.991a.178.178 0 0 0-.178-.178h-4.479a.167.167 0 0 0-.124.053.189.189 0 0 0 0 .25l.685.878a.636.636 0 0 1 .161.487v6.206c0 1.959-1.019 2.879-2.579 2.879s-2.578-.961-2.578-2.978v-7.6a.178.178 0 0 0-.177-.178H38.1a.167.167 0 0 0-.125.053.191.191 0 0 0 0 .25c.056.07.683.878.683.878a.632.632 0 0 1 .161.487v6.186c0 4.376 2.5 6.4 6.476 6.4s6.553-1.979 6.553-6.5z" transform="translate(-6 -5.309)"/>
            <path id="패스_1079" data-name="패스 1079" class="cls-3" d="M97.468 5.813h-4.489a.165.165 0 0 0-.124.053.178.178 0 0 0 0 .25l.792 1.019a.633.633 0 0 1 .163.487v5.585l-5.573-7.159a.543.543 0 0 0-.429-.235h-4.089a.168.168 0 0 0-.126.053.183.183 0 0 0 0 .25c.064.08.684.877.684.877a.639.639 0 0 1 .16.487v12.146a.178.178 0 0 0 .178.177H88.1a.177.177 0 0 0 .177-.177v-7.5l5.786 7.431c.167.216.36.244.721.244h2.688a.178.178 0 0 0 .178-.177V5.991a.178.178 0 0 0-.182-.178z" transform="translate(-6 -5.309)"/>
            <path id="패스_1080" data-name="패스 1080" class="cls-3" d="M111.29 5.813H99.584a.168.168 0 0 0-.126.053.176.176 0 0 0 0 .25c.068.089.684.878.684.878a.632.632 0 0 1 .161.487v12.145a.177.177 0 0 0 .177.177h10.81a.176.176 0 0 0 .176-.177V16.7a.177.177 0 0 0-.176-.178h-7.112v-2.25h6.38a.177.177 0 0 0 .177-.177v-2.572a.177.177 0 0 0-.177-.178h-6.38V9.09h7.112a.176.176 0 0 0 .176-.177V5.991a.177.177 0 0 0-.176-.178z" transform="translate(-6 -5.309)"/>
        </g>
    </g>
</svg>
